<svg width="35" height="25" xmlns="http://www.w3.org/2000/svg" fill="none">

 <g>
  <title>Layer 1</title>
  <path id="svg_2" fill="#188FFF" d="m34.7333,7.95215l-8.4878,0c-2.2942,-4.47515 -4.7221,-7.95215 -8.0256,-7.95215c-4.3007,0 -6.3192,3.81522 -8.27295,7.53145l-0.17024,0.32584l-9.77671,0l0,2.20663l5.69498,0c2.01046,0 2.41985,0.6888 2.41985,0.6888c-1.57676,2.4912 -3.47373,4.9536 -6.63535,4.9536l-1.47948,0l0,2.3139l1.49164,0c6.12868,0 8.80386,-5.0567 10.95216,-9.11529c1.97,-3.74098 3.3441,-6.00536 5.7801,-6.00536c2.5293,0 5.1883,5.59702 7.5271,10.53825c0.3405,0.7177 0.6891,1.4518 1.0417,2.1819c-8.9741,0.2887 -13.2504,2.4252 -16.7282,4.1699c-2.54551,1.2745 -4.55598,2.8542 -7.86352,2.8542l-2.20098,0l0,2.318l2.18071,0c3.98446,0 6.46917,-1.2497 9.11199,-2.5778c3.6602,-1.8313 7.8108,-3.906 17.5956,-3.906l5.6545,0l0,-2.318l-3.1941,0c-0.2635,0.0206 -0.5269,-0.0206 -0.7701,-0.1237c-0.2432,-0.099 -0.4621,-0.2558 -0.6364,-0.4579c-0.5594,-1.1012 -1.1066,-2.2602 -1.6416,-3.4192l-0.7418,-1.5426c0,0 0.531,-0.5774 1.9983,-0.5774l5.1762,0l0,-2.08707z"/>
 </g>
</svg>